<?xml version="1.0" encoding="utf-8"?>
<!-- Generator: Adobe Illustrator 21.0.0, SVG Export Plug-In . SVG Version: 6.00 Build 0)  -->
<svg version="1.1" id="Layer_1" xmlns="http://www.w3.org/2000/svg" xmlns:xlink="http://www.w3.org/1999/xlink" x="0px" y="0px"
	 viewBox="0 0 512 512" style="enable-background:new 0 0 512 512;" xml:space="preserve">
<style type="text/css">
	.st0{fill:#141F38;}
</style>
<title>paper-plane-glyph</title>
<path class="st0" d="M7.4,71.8l500.8,171.3c4.7,1.6,5.1,8.1,0.7,10.3l-84.3,42.1c-1.5,0.8-3.4,0.8-4.9,0l-332.4-159
	c-3.7-1.8-8.1-0.3-9.8,3.4c-1.5,3.1-0.7,6.8,2,8.9l234.5,193.2c3.1,2.6,2.6,7.5-1.1,9.4l-146.6,73.3c-2.8,1.4-6.3,0.2-7.6-2.7
	L0.5,79.5C-1.5,75,2.8,70.2,7.4,71.8z M277.9,394.5l60.9,44.9c4.2,3.1,10.1-0.8,8.8-5.9l-16.7-66.9c-0.9-3.5-4.7-5.3-7.9-3.7
	l-44.1,22C275,386.8,274.5,392,277.9,394.5z M338.7,343.4c1.2,1,2.1,2.4,2.5,3.9l19.2,76.5c1.3,5.4,8.8,5.8,10.7,0.6l40.3-110.8
	c1-2.7-0.2-5.7-2.9-7L176.8,195.8c-6-2.9-11.1,5.2-6,9.4L338.7,343.4z"/>
</svg>
