<svg id="Layer_1" data-name="Layer 1" xmlns="http://www.w3.org/2000/svg" viewBox="0 0 512 512"><defs><style>.cls-1{fill:#141f38;}</style></defs><title>paper-plane-outline</title><path class="cls-1" d="M507.56,236.66,8.69,66A6.57,6.57,0,0,0,.6,75L158.14,416.29a6.59,6.59,0,0,0,3.79,3.44,6.58,6.58,0,0,0,5.11-.32L251.76,377l92.24,68c.1.07.2.12.3.19l.43.27.48.24.47.19.51.15.5.12.53.07.34,0h.34c.13,0,.26,0,.4,0s.38,0,.57,0,.34-.07.5-.11.3-.06.45-.11.32-.12.48-.19.29-.11.43-.17.3-.17.45-.25.24-.13.36-.2l.05,0c.17-.11.32-.25.48-.38s.21-.16.31-.25.3-.31.44-.48.16-.17.23-.25a6.58,6.58,0,0,0,.39-.58c.05-.08.11-.16.16-.24a6.59,6.59,0,0,0,.3-.63c0-.09.09-.18.13-.27l0-.08,51.62-142,102.68-51.34a6.57,6.57,0,0,0-.81-12.08ZM317.26,344.3l12.55,50.18,7.3,29.19-72.15-53.22Zm31.81,73.08-11-44-8.77-35.09-.85-3.38-.43-1.73a6.54,6.54,0,0,0-.3-.89l-.1-.22a6.53,6.53,0,0,0-.36-.69l-.08-.14a6.57,6.57,0,0,0-.57-.75l-.11-.12a6.52,6.52,0,0,0-.6-.58l-.08-.07L322.52,327,144.16,180.11,385.47,295.52l6.74,3.22-3.59,9.88Zm51.29-129.3-299-143a6.57,6.57,0,0,0-7,11L309.67,333.42l-60.18,30.09-.09,0-82.17,41.08L19,83.38,488.48,244Z"/></svg>