<svg id="Layer_1" data-name="Layer 1" xmlns="http://www.w3.org/2000/svg" viewBox="0 0 512 512"><defs><style>.cls-1{fill:#141f38;}</style></defs><title>document-unlocked-glyph</title><path class="cls-1" d="M346.34,361.43a63.83,63.83,0,0,1,76.06-52.9V153.6L268.94,0H89.6a64,64,0,0,0-64,64V448a64,64,0,0,0,64,64H316.94a57.26,57.26,0,0,1-9.74-32V416A57.71,57.71,0,0,1,346.34,361.43ZM140.8,243.2h64a12.8,12.8,0,1,1,0,25.6h-64a12.8,12.8,0,0,1,0-25.6Zm140.42,128H140.8a12.8,12.8,0,1,1,0-25.6H281.22a12.8,12.8,0,1,1,0,25.6Zm.38-51.2H140.8a12.8,12.8,0,0,1,0-25.6H281.6a12.8,12.8,0,0,1,0,25.6ZM256,102.4V25.6L396.8,166.4H320A64,64,0,0,1,256,102.4ZM454.4,384H396.8V371.2a12.81,12.81,0,0,1,23.89-6.4A12.8,12.8,0,0,0,442.84,352,38.4,38.4,0,0,0,371.2,371.2V384h-6.4a32,32,0,0,0-32,32v64a32,32,0,0,0,32,32h89.6a32,32,0,0,0,32-32V416A32,32,0,0,0,454.4,384Zm-44.8,76.8A12.8,12.8,0,1,1,422.4,448,12.8,12.8,0,0,1,409.6,460.8Z"/></svg>