<svg id="Layer_1" data-name="Layer 1" xmlns="http://www.w3.org/2000/svg" viewBox="0 0 512 512"><defs><style>.cls-1{fill:#141f38;}</style></defs><title>truck-outline</title><path class="cls-1" d="M434.76,218.33A51.23,51.23,0,0,0,390,192H364.8a19.22,19.22,0,0,0-19.2,19.2v64a19.22,19.22,0,0,0,19.2,19.2h79.59a19.2,19.2,0,0,0,16.78-28.52ZM371.2,268.8V217.6H390a25.63,25.63,0,0,1,22.38,13.17l21.13,38Z"/><path class="cls-1" d="M502.33,260.88,464.68,193.1a76.83,76.83,0,0,0-67.13-39.5H332.8V140.8A76.88,76.88,0,0,0,256,64H76.8A76.88,76.88,0,0,0,0,140.8V320a76.92,76.92,0,0,0,65.13,75.91,64,64,0,0,0,125.58.89H346.89a64,64,0,0,0,126.65-10.29A76.81,76.81,0,0,0,512,320V298.18A77,77,0,0,0,502.33,260.88ZM128,422.4A38.4,38.4,0,1,1,166.4,384,38.44,38.44,0,0,1,128,422.4Zm179.2-51.2H190.71a64,64,0,0,0-125.14-1.26A51.28,51.28,0,0,1,25.6,320V140.8A51.26,51.26,0,0,1,76.8,89.6H256a51.26,51.26,0,0,1,51.2,51.2V371.2Zm102.4,51.2A38.4,38.4,0,1,1,448,384,38.44,38.44,0,0,1,409.6,422.4ZM486.4,320a51.09,51.09,0,0,1-17.94,38.88A64,64,0,0,0,346.89,371.2H332.8v-192h64.74a51.23,51.23,0,0,1,44.76,26.34l37.65,67.78a51.37,51.37,0,0,1,6.45,24.87Z"/></svg>