<svg id="Layer_1" data-name="Layer 1" xmlns="http://www.w3.org/2000/svg" viewBox="0 0 512 512"><defs><style>.cls-1{fill:#141f38;}</style></defs><title>truck-glyph</title><path class="cls-1" d="M502.33,260.88,464.68,193.1a76.83,76.83,0,0,0-67.13-39.5H332.8V140.8A76.88,76.88,0,0,0,256,64H76.8A76.88,76.88,0,0,0,0,140.8V320a76.85,76.85,0,0,0,65.14,75.82,64,64,0,0,0,125.57,1H346.89a64,64,0,0,0,126.58-10.31A76.78,76.78,0,0,0,512,320V298.18A77.05,77.05,0,0,0,502.33,260.88ZM128,422.4A38.4,38.4,0,1,1,166.4,384,38.44,38.44,0,0,1,128,422.4Zm281.6,0A38.4,38.4,0,1,1,448,384,38.44,38.44,0,0,1,409.6,422.4Zm44.79-153.6H374.8a6.4,6.4,0,0,1-6.4-6.4v-64a6.4,6.4,0,0,1,6.4-6.4H400a38.4,38.4,0,0,1,33.57,19.75L460,259.29A6.4,6.4,0,0,1,454.39,268.8Z"/></svg>